<svg width="17.962891" height="16.000000" viewBox="0 0 17.9629 16" fill="none" xmlns="http://www.w3.org/2000/svg" xmlns:xlink="http://www.w3.org/1999/xlink">
	<desc>
			Created with Pixso.
	</desc>
	<defs/>
	<path id="矢量 189" d="M8.62891 1.51746C8.97559 1.17029 8.97559 0.607422 8.62891 0.260376C8.28125 -0.086792 7.71875 -0.086792 7.37109 0.260376L0.270264 7.36194C0.235474 7.39563 0.203491 7.43225 0.174438 7.47119C0.0679932 7.61487 0.00366211 7.79175 0.00012207 7.9834C0 7.98889 0 7.99451 0 8L0 8.00012C0 8.25232 0.105225 8.4801 0.274048 8.64185L7.37109 15.7396C7.71875 16.0868 8.28125 16.0868 8.62891 15.7396C8.97559 15.3926 8.97559 14.8297 8.62891 14.4825L3.03455 8.88892L17.0742 8.88892C17.5654 8.88892 17.9629 8.49097 17.9629 8C17.9629 7.50903 17.5654 7.11108 17.0742 7.11108L3.03442 7.11121L8.62891 1.51746Z" fill="#000000" fill-opacity="1.000000" fill-rule="evenodd"/>
</svg>
