<svg width="93.831543" height="16.564453" viewBox="0 0 93.8315 16.5645" fill="none" xmlns="http://www.w3.org/2000/svg" xmlns:xlink="http://www.w3.org/1999/xlink">
	<desc>
			Created with Pixso.
	</desc>
	<defs/>
	<path id="Novemia" d="M0.569336 16.3442C0.422526 16.3442 0.290039 16.2905 0.171875 16.1831C0.0572916 16.0721 0 15.936 0 15.7749L0 1.51465C0 1.35352 0.0572916 1.21924 0.171875 1.11182C0.290039 1.00081 0.422526 0.945312 0.569336 0.945312L3.49658 0.945312C3.76156 0.945312 3.95133 1.00439 4.06592 1.12256C4.18408 1.23714 4.26644 1.33203 4.31299 1.40723L8.84619 8.69043L8.84619 1.51465C8.84619 1.35352 8.90348 1.21924 9.01807 1.11182C9.13623 1.00081 9.27588 0.945312 9.43701 0.945312L12.7402 0.945312C12.9014 0.945312 13.0356 1.00081 13.1431 1.11182C13.2541 1.21924 13.3096 1.35352 13.3096 1.51465L13.3096 15.7749C13.3096 15.936 13.2541 16.0721 13.1431 16.1831C13.0356 16.2905 12.9014 16.3442 12.7402 16.3442L9.83447 16.3442C9.5695 16.3442 9.37435 16.2816 9.24902 16.1562C9.12728 16.0309 9.04313 15.9396 8.99658 15.8823L4.46338 8.99658L4.46338 15.7749C4.46338 15.936 4.40788 16.0721 4.29688 16.1831C4.18945 16.2905 4.05518 16.3442 3.89404 16.3442L0.569336 16.3442ZM21.5815 16.5645C20.2924 16.5645 19.2039 16.3747 18.3159 15.9951C17.4278 15.612 16.7493 15.0498 16.2802 14.3086C15.8111 13.5674 15.5462 12.6758 15.4853 11.6338C15.471 11.3258 15.4638 10.9893 15.4638 10.624C15.4638 10.2588 15.471 9.9222 15.4853 9.61426C15.5462 8.55794 15.8255 7.66276 16.3232 6.92871C16.8209 6.19466 17.5138 5.63786 18.4018 5.2583C19.2898 4.87516 20.3497 4.68359 21.5815 4.68359C22.8133 4.68359 23.8731 4.87516 24.7612 5.2583C25.6492 5.63786 26.3421 6.19466 26.8398 6.92871C27.3375 7.66276 27.6168 8.55794 27.6777 9.61426C27.7063 9.9222 27.7206 10.2588 27.7206 10.624C27.7206 10.9893 27.7063 11.3258 27.6777 11.6338C27.6168 12.6758 27.3518 13.5674 26.8828 14.3086C26.4137 15.0498 25.7351 15.612 24.8471 15.9951C23.9591 16.3747 22.8705 16.5645 21.5815 16.5645ZM21.5815 13.46C22.1258 13.46 22.4999 13.2988 22.704 12.9766C22.9081 12.6543 23.0245 12.1709 23.0532 11.5264C23.0711 11.3079 23.08 11.009 23.08 10.6294C23.08 10.2463 23.0711 9.94369 23.0532 9.72168C23.0245 9.09147 22.9081 8.61165 22.704 8.28223C22.4999 7.9528 22.1258 7.78809 21.5815 7.78809C21.0551 7.78809 20.6881 7.9528 20.4804 8.28223C20.2763 8.61165 20.1528 9.09147 20.1098 9.72168C20.0955 9.94369 20.0883 10.2463 20.0883 10.6294C20.0883 11.009 20.0955 11.3079 20.1098 11.5264C20.1528 12.1709 20.2763 12.6543 20.4804 12.9766C20.6881 13.2988 21.0551 13.46 21.5815 13.46ZM33.3075 16.3442C33.0891 16.3442 32.928 16.2852 32.8241 16.167C32.7203 16.0488 32.6326 15.9253 32.5609 15.7964L28.3554 5.58594C28.3411 5.52865 28.3339 5.46956 28.3339 5.40869C28.3339 5.2762 28.3858 5.15983 28.4897 5.05957C28.5935 4.95573 28.7117 4.90381 28.8441 4.90381L31.9648 4.90381C32.1724 4.90381 32.3264 4.95931 32.4267 5.07031C32.5305 5.18132 32.6039 5.28695 32.6469 5.38721L34.7577 11.3491L36.8954 5.38721C36.9384 5.28695 37.01 5.18132 37.1103 5.07031C37.2141 4.95931 37.3699 4.90381 37.5775 4.90381L40.6767 4.90381C40.8235 4.90381 40.9434 4.95573 41.0365 5.05957C41.1332 5.15983 41.1815 5.2762 41.1815 5.40869C41.1815 5.46956 41.1744 5.52865 41.1601 5.58594L36.9814 15.7964C36.9241 15.9253 36.8399 16.0488 36.7289 16.167C36.6179 16.2852 36.4532 16.3442 36.2348 16.3442L33.3075 16.3442ZM47.8032 16.5645C45.9699 16.5645 44.5143 16.0918 43.4365 15.1465C42.3587 14.2012 41.8055 12.7528 41.7768 10.8013C41.7768 10.7404 41.7768 10.6634 41.7768 10.5703C41.7768 10.4736 41.7768 10.4038 41.7768 10.3608C41.8198 9.14339 42.0866 8.11393 42.5771 7.27246C43.0713 6.42741 43.7624 5.78467 44.6504 5.34424C45.5384 4.90381 46.5822 4.68359 47.7817 4.68359C49.1317 4.68359 50.2506 4.95215 51.1387 5.48926C52.0267 6.02279 52.6909 6.73356 53.1313 7.62158C53.5718 8.5096 53.792 9.50326 53.792 10.6025L53.792 11.2202C53.792 11.367 53.7329 11.4995 53.6147 11.6177C53.4966 11.7323 53.3569 11.7896 53.1958 11.7896L46.4175 11.7896C46.4175 11.7896 46.4175 11.8057 46.4175 11.8379C46.4175 11.8665 46.4175 11.8952 46.4175 11.9238C46.4175 12.2747 46.4658 12.5863 46.5625 12.8584C46.6592 13.1305 46.8096 13.3436 47.0137 13.4976C47.2178 13.6515 47.4666 13.7285 47.7602 13.7285C47.9536 13.7285 48.1147 13.6999 48.2436 13.6426C48.3761 13.5817 48.4943 13.5047 48.5981 13.4116C48.702 13.3149 48.7897 13.2218 48.8613 13.1323C48.9938 12.9998 49.0994 12.9157 49.1782 12.8799C49.2606 12.8441 49.3895 12.8262 49.5649 12.8262L53.0185 12.8262C53.151 12.8262 53.2638 12.8709 53.3569 12.9604C53.4536 13.0464 53.4948 13.1556 53.4805 13.2881C53.4661 13.5495 53.3408 13.8682 53.1045 14.2441C52.8717 14.6165 52.5244 14.98 52.0625 15.3345C51.6006 15.6854 51.0098 15.979 50.29 16.2153C49.5739 16.4481 48.7449 16.5645 47.8032 16.5645ZM46.4175 9.32422L49.146 9.32422L49.146 9.28125C49.146 8.88737 49.0941 8.55078 48.9902 8.27148C48.89 7.99219 48.736 7.78271 48.5283 7.64307C48.3242 7.50342 48.0753 7.43359 47.7817 7.43359C47.4881 7.43359 47.2392 7.50342 47.0351 7.64307C46.831 7.78271 46.6771 7.99219 46.5732 8.27148C46.4694 8.55078 46.4175 8.88737 46.4175 9.28125L46.4175 9.32422ZM56.1631 16.3442C56.002 16.3442 55.8659 16.2905 55.7549 16.1831C55.6475 16.0721 55.5938 15.936 55.5938 15.7749L55.5938 5.47852C55.5938 5.31738 55.6475 5.18132 55.7549 5.07031C55.8659 4.95931 56.002 4.90381 56.1631 4.90381L59.1817 4.90381C59.3428 4.90381 59.4771 4.95931 59.5845 5.07031C59.6955 5.18132 59.751 5.31738 59.751 5.47852L59.751 6.20361C60.0303 5.84912 60.4331 5.51432 60.9595 5.19922C61.4895 4.88411 62.1143 4.71224 62.834 4.68359C64.5492 4.64062 65.7076 5.25651 66.3091 6.53125C66.6457 6.00488 67.1255 5.56624 67.7486 5.21533C68.3716 4.86084 69.0358 4.68359 69.7412 4.68359C70.5039 4.68359 71.1897 4.85726 71.7984 5.20459C72.4071 5.54834 72.8941 6.0765 73.2593 6.78906C73.6245 7.49805 73.8072 8.42367 73.8072 9.56592L73.8072 15.7749C73.8072 15.936 73.7517 16.0721 73.6407 16.1831C73.5332 16.2905 73.399 16.3442 73.2378 16.3442L70.0259 16.3442C69.8648 16.3442 69.7287 16.2905 69.6177 16.1831C69.5067 16.0721 69.4512 15.936 69.4512 15.7749L69.4512 9.7002C69.4512 9.32064 69.3921 9.01807 69.274 8.79248C69.1594 8.56331 69.0108 8.39323 68.8282 8.28223C68.6455 8.17122 68.4289 8.11572 68.1783 8.11572C67.9419 8.11572 67.7289 8.17122 67.5391 8.28223C67.3493 8.39323 67.1989 8.56331 67.0879 8.79248C66.9769 9.01807 66.9214 9.32064 66.9214 9.7002L66.9214 15.7749C66.9214 15.936 66.8659 16.0721 66.7549 16.1831C66.6475 16.2905 66.5132 16.3442 66.3521 16.3442L63.1402 16.3442C62.979 16.3442 62.843 16.2905 62.732 16.1831C62.621 16.0721 62.5655 15.936 62.5655 15.7749L62.5655 9.7002C62.5655 9.32064 62.5064 9.01807 62.3882 8.79248C62.2736 8.56331 62.1232 8.39323 61.937 8.28223C61.7544 8.17122 61.5396 8.11572 61.2925 8.11572C61.0562 8.11572 60.8431 8.1748 60.6534 8.29297C60.4636 8.41113 60.3096 8.58122 60.1914 8.80322C60.0733 9.02165 60.0142 9.32064 60.0142 9.7002L60.0142 15.7749C60.0142 15.936 59.9587 16.0721 59.8477 16.1831C59.7403 16.2905 59.606 16.3442 59.4449 16.3442L56.1631 16.3442ZM76.5571 16.3442C76.396 16.3442 76.2599 16.2905 76.1489 16.1831C76.0415 16.0721 75.9878 15.936 75.9878 15.7749L75.9878 5.47852C75.9878 5.31738 76.0415 5.18132 76.1489 5.07031C76.2599 4.95931 76.396 4.90381 76.5571 4.90381L79.8174 4.90381C79.9785 4.90381 80.1164 4.95931 80.2309 5.07031C80.3491 5.18132 80.4082 5.31738 80.4082 5.47852L80.4082 15.7749C80.4082 15.936 80.3491 16.0721 80.2309 16.1831C80.1164 16.2905 79.9785 16.3442 79.8174 16.3442L76.5571 16.3442ZM76.6055 3.4751C76.4443 3.4751 76.3083 3.4196 76.1973 3.30859C76.0863 3.19759 76.0308 3.06152 76.0308 2.90039L76.0308 0.59082C76.0308 0.429688 76.0863 0.291828 76.1973 0.177246C76.3083 0.059082 76.4443 0 76.6055 0L79.7744 0C79.9355 0 80.0734 0.059082 80.188 0.177246C80.3061 0.291828 80.3652 0.429688 80.3652 0.59082L80.3652 2.90039C80.3652 3.06152 80.3061 3.19759 80.188 3.30859C80.0734 3.4196 79.9355 3.4751 79.7744 3.4751L76.6055 3.4751ZM86.2153 16.5645C85.4097 16.5645 84.6881 16.4105 84.0508 16.1025C83.4134 15.7946 82.9139 15.381 82.5522 14.8618C82.1942 14.339 82.0151 13.7554 82.0151 13.1108C82.0151 12.0545 82.443 11.222 83.2988 10.6133C84.1582 10.0046 85.3076 9.58203 86.7471 9.3457L89.2983 8.95361L89.2983 8.79785C89.2983 8.3431 89.2249 8.00293 89.0781 7.77734C88.9313 7.54818 88.6377 7.43359 88.1973 7.43359C87.8893 7.43359 87.6405 7.49268 87.4507 7.61084C87.2609 7.729 87.0854 7.8973 86.9243 8.11572C86.7775 8.27686 86.5859 8.35742 86.3496 8.35742L83.2451 8.35742C83.1019 8.35742 82.9819 8.31445 82.8853 8.22852C82.7886 8.139 82.7474 8.02083 82.7617 7.87402C82.776 7.60905 82.8853 7.29753 83.0894 6.93945C83.297 6.58138 83.6175 6.23047 84.0508 5.88672C84.484 5.53939 85.0444 5.25293 85.7319 5.02734C86.423 4.79818 87.252 4.68359 88.2188 4.68359C89.2035 4.68359 90.0467 4.7946 90.7485 5.0166C91.4539 5.23503 92.034 5.54297 92.4888 5.94043C92.9435 6.33431 93.2801 6.81413 93.4985 7.37988C93.7205 7.94564 93.8315 8.57227 93.8315 9.25977L93.8315 15.7749C93.8315 15.936 93.776 16.0721 93.665 16.1831C93.554 16.2905 93.418 16.3442 93.2568 16.3442L90.0664 16.3442C89.9053 16.3442 89.7656 16.2905 89.6475 16.1831C89.5329 16.0721 89.4756 15.936 89.4756 15.7749L89.4756 15.0659C89.2822 15.3595 89.028 15.6173 88.7129 15.8394C88.3978 16.0578 88.0308 16.2332 87.6118 16.3657C87.1964 16.4982 86.731 16.5645 86.2153 16.5645ZM87.4937 13.6802C87.8589 13.6802 88.1812 13.6032 88.4604 13.4492C88.7397 13.2952 88.9564 13.0571 89.1104 12.7349C89.2643 12.4126 89.3413 12.0098 89.3413 11.5264L89.3413 11.3706L87.7568 11.6821C87.2161 11.7824 86.8348 11.9292 86.6128 12.1226C86.3944 12.3123 86.2852 12.5308 86.2852 12.7778C86.2852 12.9569 86.3353 13.1126 86.4355 13.2451C86.5394 13.374 86.6826 13.4797 86.8652 13.562C87.0479 13.6408 87.2573 13.6802 87.4937 13.6802Z" fill="#F22C64" fill-opacity="1.000000" fill-rule="evenodd"/>
</svg>
