<svg width="16.000061" height="16.000000" viewBox="0 0 16.0001 16" fill="none" xmlns="http://www.w3.org/2000/svg" xmlns:xlink="http://www.w3.org/1999/xlink">
	<desc>
			Created with Pixso.
	</desc>
	<defs/>
	<path id="Vector (Stroke)" d="M0 7.27148C0 3.25562 3.25555 0 7.27148 0C11.2874 0 14.5429 3.25562 14.5429 7.27148C14.5429 11.2874 11.2874 14.543 7.27148 14.543C3.25555 14.543 0 11.2874 0 7.27148ZM7.27148 1.1792C3.9068 1.1792 1.17914 3.90674 1.17914 7.27148C1.17914 10.6361 3.9068 13.3638 7.27148 13.3638C10.6361 13.3638 13.3638 10.6361 13.3638 7.27148C13.3638 3.90674 10.6361 1.1792 7.27148 1.1792Z" fill="#666666" fill-opacity="1.000000" fill-rule="evenodd"/>
	<path id="Vector (Stroke)" d="M4.63104 4.23804C5.30615 3.56299 6.24048 3.14441 7.27142 3.14441C8.30231 3.14441 9.23663 3.56299 9.91174 4.23804C10.142 4.46826 10.142 4.84155 9.91174 5.0719C9.68146 5.30212 9.30817 5.30212 9.07794 5.0719C8.61493 4.60889 7.97705 4.32361 7.27142 4.32361C6.56573 4.32361 5.92786 4.60889 5.46484 5.0719C5.23456 5.30212 4.86127 5.30212 4.63104 5.07178C4.40082 4.84155 4.40082 4.46826 4.63104 4.23804Z" fill="#666666" fill-opacity="1.000000" fill-rule="evenodd"/>
	<path id="Vector (Stroke)" d="M11.6584 11.6584C11.8887 11.4281 12.262 11.4281 12.4922 11.6584L15.8273 14.9935C16.0576 15.2238 16.0576 15.597 15.8273 15.8274C15.5971 16.0576 15.2238 16.0576 14.9935 15.8274L11.6584 12.4922C11.4282 12.262 11.4282 11.8887 11.6584 11.6584Z" fill="#666666" fill-opacity="1.000000" fill-rule="evenodd"/>
</svg>
